<svg xmlns="http://www.w3.org/2000/svg" width="1400" height="760" viewBox="0 0 1400 760" role="img" aria-labelledby="title desc">
<title id="title">Ingresos, EBITDA y resultado neto CUEVA 2026/27-2030</title>
<desc id="desc">Grafico de barras con ingresos, EBITDA y resultado neto del modelo financiero definitivo.</desc>
<rect width="1400" height="760" fill="#f7f9fb"/>
<rect x="54" y="46" width="1292" height="668" rx="18" fill="#ffffff" stroke="#d5dee6"/>
<text x="90" y="104" font-family="Arial, sans-serif" font-size="34" font-weight="700" fill="#0b1f33">CUEVA Total 2030 · modelo financiero</text>
<text x="90" y="138" font-family="Arial, sans-serif" font-size="18" fill="#637083">Ingresos, EBITDA y resultado neto en EUR M. Tramo 2026/27 unificado y salarios crecientes.</text>
<line x1="150" y1="606.0" x2="1270" y2="606.0" stroke="#d5dee6" stroke-width="2"/>
<text x="98" y="612.0" font-family="Arial, sans-serif" font-size="15" fill="#637083">0</text>
<line x1="150" y1="493.5" x2="1270" y2="493.5" stroke="#e8eef3" stroke-width="1"/>
<text x="78" y="499.5" font-family="Arial, sans-serif" font-size="15" fill="#637083">50</text>
<line x1="150" y1="381.0" x2="1270" y2="381.0" stroke="#e8eef3" stroke-width="1"/>
<text x="78" y="387.0" font-family="Arial, sans-serif" font-size="15" fill="#637083">100</text>
<line x1="150" y1="268.5" x2="1270" y2="268.5" stroke="#e8eef3" stroke-width="1"/>
<text x="78" y="274.5" font-family="Arial, sans-serif" font-size="15" fill="#637083">150</text>
<line x1="150" y1="156.0" x2="1270" y2="156.0" stroke="#e8eef3" stroke-width="1"/>
<text x="78" y="162.0" font-family="Arial, sans-serif" font-size="15" fill="#637083">200</text>
<g font-family="Arial, sans-serif">
<g transform="translate(220 0)">
<rect x="0" y="584.5" width="42" height="21.5" rx="6" fill="#16A6C9"/>
<text x="-4" y="568.5" font-size="16" font-weight="700" fill="#0b1f33">9,57</text>
<rect x="54" y="604.8" width="42" height="1.2" rx="6" fill="#159A76"/>
<text x="50" y="588.8" font-size="16" font-weight="700" fill="#0b1f33">0,54</text>
<text x="108" y="634" font-size="14" fill="#9a4a3a">-0,12</text>
<text x="18" y="650" font-size="18" font-weight="700" fill="#0b1f33">2026/27</text>
</g>
<g transform="translate(510 0)">
<rect x="0" y="507.3" width="42" height="98.7" rx="6" fill="#16A6C9"/>
<text x="-4" y="491.3" font-size="16" font-weight="700" fill="#0b1f33">43,87</text>
<rect x="54" y="566.0" width="42" height="40.0" rx="6" fill="#159A76"/>
<text x="50" y="550.0" font-size="16" font-weight="700" fill="#0b1f33">17,78</text>
<rect x="108" y="577.4" width="42" height="28.6" rx="6" fill="#D38A24"/>
<text x="104" y="561.4" font-size="16" font-weight="700" fill="#0b1f33">12,69</text>
<text x="18" y="650" font-size="18" font-weight="700" fill="#0b1f33">2028</text>
</g>
<g transform="translate(800 0)">
<rect x="0" y="393.6" width="42" height="212.4" rx="6" fill="#16A6C9"/>
<text x="-4" y="377.6" font-size="16" font-weight="700" fill="#0b1f33">94,42</text>
<rect x="54" y="503.8" width="42" height="102.2" rx="6" fill="#159A76"/>
<text x="50" y="487.8" font-size="16" font-weight="700" fill="#0b1f33">45,42</text>
<rect x="108" y="531.2" width="42" height="74.8" rx="6" fill="#D38A24"/>
<text x="104" y="515.2" font-size="16" font-weight="700" fill="#0b1f33">33,24</text>
<text x="18" y="650" font-size="18" font-weight="700" fill="#0b1f33">2029</text>
</g>
<g transform="translate(1090 0)">
<rect x="0" y="173.9" width="42" height="432.1" rx="6" fill="#16A6C9"/>
<text x="-4" y="157.9" font-size="16" font-weight="700" fill="#0b1f33">192,03</text>
<rect x="54" y="363.3" width="42" height="242.7" rx="6" fill="#159A76"/>
<text x="50" y="347.3" font-size="16" font-weight="700" fill="#0b1f33">107,88</text>
<rect x="108" y="426.6" width="42" height="179.4" rx="6" fill="#D38A24"/>
<text x="104" y="410.6" font-size="16" font-weight="700" fill="#0b1f33">79,75</text>
<text x="18" y="650" font-size="18" font-weight="700" fill="#0b1f33">2030</text>
</g>
</g>
<g transform="translate(90 682)" font-family="Arial, sans-serif" font-size="17" fill="#26323f">
<rect x="0" y="-14" width="18" height="18" rx="4" fill="#16A6C9"/><text x="28" y="1">Ingresos</text>
<rect x="170" y="-14" width="18" height="18" rx="4" fill="#159A76"/><text x="198" y="1">EBITDA</text>
<rect x="340" y="-14" width="18" height="18" rx="4" fill="#D38A24"/><text x="368" y="1">Resultado neto</text>
</g></svg>