<svg xmlns="http://www.w3.org/2000/svg" width="1400" height="760" viewBox="0 0 1400 760" role="img" aria-labelledby="title desc">
  <title id="title">Ingresos, EBITDA y resultado neto CUEVA 2026/27-2030</title>
  <desc id="desc">Grafico de barras con ingresos, EBITDA y resultado neto del modelo financiero definitivo.</desc>
  <rect width="1400" height="760" fill="#f7f9fb"/>
  <rect x="54" y="46" width="1292" height="668" rx="18" fill="#ffffff" stroke="#d5dee6"/>
  <text x="90" y="104" font-family="Arial, sans-serif" font-size="34" font-weight="700" fill="#0b1f33">CUEVA Total 2030 · modelo definitivo</text>
  <text x="90" y="138" font-family="Arial, sans-serif" font-size="18" fill="#637083">Ingresos, EBITDA y resultado neto en EUR M. Tramo 2026/27 unificado y curva de m² no lineal.</text>
  <line x1="150" y1="606" x2="1270" y2="606" stroke="#d5dee6" stroke-width="2"/>
  <line x1="150" y1="456" x2="1270" y2="456" stroke="#e8eef3" stroke-width="1"/>
  <line x1="150" y1="306" x2="1270" y2="306" stroke="#e8eef3" stroke-width="1"/>
  <line x1="150" y1="156" x2="1270" y2="156" stroke="#e8eef3" stroke-width="1"/>
  <text x="98" y="612" font-family="Arial, sans-serif" font-size="15" fill="#637083">0</text>
  <text x="88" y="462" font-family="Arial, sans-serif" font-size="15" fill="#637083">50</text>
  <text x="78" y="312" font-family="Arial, sans-serif" font-size="15" fill="#637083">100</text>
  <text x="78" y="162" font-family="Arial, sans-serif" font-size="15" fill="#637083">150</text>
  <g font-family="Arial, sans-serif">
    <g transform="translate(220 0)">
      <rect x="0" y="581.6" width="42" height="24.4" rx="6" fill="#16a6c9"/>
      <rect x="54" y="606" width="42" height="0" rx="6" fill="#159a76"/>
      <rect x="108" y="606" width="42" height="0" rx="6" fill="#d38a24"/>
      <text x="0" y="565" font-size="16" font-weight="700" fill="#0b1f33">9,57</text>
      <text x="54" y="626" font-size="14" fill="#9a4a3a">-3,84</text>
      <text x="108" y="646" font-size="14" fill="#9a4a3a">-4,50</text>
      <text x="18" y="650" font-size="18" font-weight="700" fill="#0b1f33">2026/27</text>
    </g>
    <g transform="translate(510 0)">
      <rect x="0" y="494.2" width="42" height="111.8" rx="6" fill="#16a6c9"/>
      <rect x="54" y="574.4" width="42" height="31.6" rx="6" fill="#159a76"/>
      <rect x="108" y="584.0" width="42" height="22.0" rx="6" fill="#d38a24"/>
      <text x="0" y="478" font-size="16" font-weight="700" fill="#0b1f33">43,87</text>
      <text x="54" y="558" font-size="16" font-weight="700" fill="#0b1f33">12,39</text>
      <text x="108" y="568" font-size="16" font-weight="700" fill="#0b1f33">8,65</text>
      <text x="42" y="650" font-size="18" font-weight="700" fill="#0b1f33">2028</text>
    </g>
    <g transform="translate(800 0)">
      <rect x="0" y="365.2" width="42" height="240.8" rx="6" fill="#16a6c9"/>
      <rect x="54" y="509.6" width="42" height="96.4" rx="6" fill="#159a76"/>
      <rect x="108" y="535.8" width="42" height="70.2" rx="6" fill="#d38a24"/>
      <text x="0" y="349" font-size="16" font-weight="700" fill="#0b1f33">94,42</text>
      <text x="54" y="493" font-size="16" font-weight="700" fill="#0b1f33">37,81</text>
      <text x="108" y="520" font-size="16" font-weight="700" fill="#0b1f33">27,53</text>
      <text x="42" y="650" font-size="18" font-weight="700" fill="#0b1f33">2029</text>
    </g>
    <g transform="translate(1090 0)">
      <rect x="0" y="116.0" width="42" height="490.0" rx="6" fill="#16a6c9"/>
      <rect x="54" y="271.6" width="42" height="334.4" rx="6" fill="#159a76"/>
      <rect x="108" y="358.4" width="42" height="247.6" rx="6" fill="#d38a24"/>
      <text x="-4" y="100" font-size="16" font-weight="700" fill="#0b1f33">192,03</text>
      <text x="50" y="255" font-size="16" font-weight="700" fill="#0b1f33">131,07</text>
      <text x="104" y="342" font-size="16" font-weight="700" fill="#0b1f33">97,14</text>
      <text x="42" y="650" font-size="18" font-weight="700" fill="#0b1f33">2030</text>
    </g>
  </g>
  <g transform="translate(90 682)" font-family="Arial, sans-serif" font-size="17" fill="#26323f">
    <rect x="0" y="-14" width="18" height="18" rx="4" fill="#16a6c9"/><text x="28" y="1">Ingresos</text>
    <rect x="150" y="-14" width="18" height="18" rx="4" fill="#159a76"/><text x="178" y="1">EBITDA</text>
    <rect x="300" y="-14" width="18" height="18" rx="4" fill="#d38a24"/><text x="328" y="1">Resultado neto</text>
  </g>
</svg>
