<svg xmlns="http://www.w3.org/2000/svg" width="1400" height="760" viewBox="0 0 1400 760" role="img" aria-labelledby="title desc">
  <title id="title">Motor volumetrico CUEVA</title>
  <desc id="desc">Curva de metros cuadrados emitidos y stock vivo tras corregir el reparto del tramo 2026/27.</desc>
  <rect width="1400" height="760" fill="#f7f9fb"/>
  <rect x="54" y="46" width="1292" height="668" rx="18" fill="#ffffff" stroke="#d5dee6"/>
  <text x="90" y="104" font-family="Arial, sans-serif" font-size="34" font-weight="700" fill="#0b1f33">Motor volumétrico · curva corregida</text>
  <text x="90" y="138" font-family="Arial, sans-serif" font-size="18" fill="#637083">2026/27 queda en 300.000 m²; el sobrante se añade a 2028-2030 sin convertir el plan en lineal.</text>
  <line x1="150" y1="606" x2="1270" y2="606" stroke="#d5dee6" stroke-width="2"/>
  <line x1="150" y1="487" x2="1270" y2="487" stroke="#e8eef3" stroke-width="1"/>
  <line x1="150" y1="368" x2="1270" y2="368" stroke="#e8eef3" stroke-width="1"/>
  <line x1="150" y1="249" x2="1270" y2="249" stroke="#e8eef3" stroke-width="1"/>
  <line x1="150" y1="130" x2="1270" y2="130" stroke="#e8eef3" stroke-width="1"/>
  <text x="100" y="612" font-family="Arial, sans-serif" font-size="15" fill="#637083">0</text>
  <text x="78" y="493" font-family="Arial, sans-serif" font-size="15" fill="#637083">1,5M</text>
  <text x="78" y="374" font-family="Arial, sans-serif" font-size="15" fill="#637083">3,0M</text>
  <text x="78" y="255" font-family="Arial, sans-serif" font-size="15" fill="#637083">4,5M</text>
  <text x="78" y="136" font-family="Arial, sans-serif" font-size="15" fill="#637083">6,0M</text>
  <polyline points="220,582 523,514 827,446 1130,365" fill="none" stroke="#16a6c9" stroke-width="5" stroke-linecap="round" stroke-linejoin="round"/>
  <polyline points="220,582 523,490 827,330 1130,89" fill="none" stroke="#159a76" stroke-width="5" stroke-linecap="round" stroke-linejoin="round"/>
  <g font-family="Arial, sans-serif">
    <g fill="#ffffff" stroke-width="4">
      <circle cx="220" cy="582" r="11" stroke="#16a6c9"/>
      <circle cx="523" cy="514" r="11" stroke="#16a6c9"/>
      <circle cx="827" cy="446" r="11" stroke="#16a6c9"/>
      <circle cx="1130" cy="365" r="11" stroke="#16a6c9"/>
      <circle cx="220" cy="582" r="11" stroke="#159a76"/>
      <circle cx="523" cy="490" r="11" stroke="#159a76"/>
      <circle cx="827" cy="330" r="11" stroke="#159a76"/>
      <circle cx="1130" cy="89" r="11" stroke="#159a76"/>
    </g>
    <g font-size="16" font-weight="700" fill="#0b1f33">
      <text x="178" y="558">300k</text>
      <text x="480" y="492">1,16M</text>
      <text x="784" y="425">2,02M</text>
      <text x="1084" y="344">3,04M</text>
      <text x="244" y="592">300k</text>
      <text x="548" y="470">1,46M</text>
      <text x="852" y="310">3,48M</text>
      <text x="1154" y="92">6,51M</text>
    </g>
    <g font-size="18" font-weight="700" fill="#0b1f33">
      <text x="184" y="650">2026/27</text>
      <text x="500" y="650">2028</text>
      <text x="804" y="650">2029</text>
      <text x="1107" y="650">2030</text>
    </g>
  </g>
  <g transform="translate(90 682)" font-family="Arial, sans-serif" font-size="17" fill="#26323f">
    <rect x="0" y="-14" width="18" height="18" rx="4" fill="#16a6c9"/><text x="28" y="1">m² emitidos</text>
    <rect x="170" y="-14" width="18" height="18" rx="4" fill="#159a76"/><text x="198" y="1">Stock vivo</text>
    <text x="340" y="1" fill="#637083">Total stock 2030 preservado: 6.511.000 m²</text>
  </g>
</svg>
